<svg version="1.1" id="Layer_1" xmlns="http://www.w3.org/2000/svg" xmlns:xlink="http://www.w3.org/1999/xlink" xml:space="preserve" width="214.9868087791957" height="48.599999999999994" viewBox="0 0 214.9868087791957 48.599999999999994" class="css-1j8o68f">
<defs id="SvgjsDefs4828"><linearGradient id="SvgjsLinearGradient4835">
<stop id="SvgjsStop4836" stop-color="#2d388a" offset="0"></stop>
<stop id="SvgjsStop4837" stop-color="#00aeef" offset="1"></stop>
</linearGradient><linearGradient id="SvgjsLinearGradient4838">
<stop id="SvgjsStop4839" stop-color="#2d388a" offset="0"></stop>
<stop id="SvgjsStop4840" stop-color="#00aeef" offset="1"></stop>
</linearGradient><linearGradient id="SvgjsLinearGradient4841">
<stop id="SvgjsStop4842" stop-color="#2d388a" offset="0"></stop>
<stop id="SvgjsStop4843" stop-color="#00aeef" offset="1"></stop>
</linearGradient>
</defs>
<g 
id="SvgjsG4829" 
featurekey="nameLeftFeature-0" 
transform="matrix(2.195121746982319,0,0,2.195121746982319,-2.195121746982319,-1.341463057219059)" 
fill="url(#SvgjsLinearGradient4835)">
<path d="M1 20 l0 -16 l3.24 0 c2.06 0 2.76 1.26 2.76 3.68 c0 2.18 -0.26 3.42 -0.88 4.02 l0 0.12 c0.52 0.18 0.68 1.12 0.88 3.46 l0.4 4.72 l-2 0 l-0.26 -4.72 c-0.14 -2.38 -0.5 -2.88 -1.1 -2.88 l-1.04 0 l0 7.6 l-2 0 z M3 10.8 l1.24 0 c0.7 0 0.9 -0.7 0.9 -3.12 c0 -1.58 -0.3 -2.08 -0.9 -2.08 l-1.24 0 l0 5.2 z M9 20 l0 -16 l4.6 0 l0 1.6 l-2.6 0 l0 5.2 l2.2 0 l0 1.6 l-2.2 0 l0 5.6 l2.6 0 l0 2 l-4.6 0 z M14.8 11.58 c0 -5.58 0 -7.78 2.8 -7.78 c2.06 0 2.62 1.26 2.76 4.28 l-1.86 0 c-0.08 -2.18 -0.3 -2.68 -0.9 -2.68 c-0.92 0 -0.92 0.98 -0.92 6.18 c0 5.78 0 6.62 0.92 6.62 c0.66 0 0.86 -0.5 0.9 -3.08 l1.88 0 c-0.12 3.7 -0.62 5.08 -2.78 5.08 c-2.8 0 -2.8 -2.22 -2.8 -8.62 z M21.78 20 l0 -16 l2 0 l0 16 l-2 0 z M25.78 20 l0 -16 l3.24 0 c2.06 0 2.6 1.26 2.76 4.28 l0 0.64 c-0.16 3.02 -0.7 4.28 -2.76 4.28 l-1.24 0 l0 6.8 l-2 0 z M27.78 11.6 l1.24 0 c0.6 0 0.82 -0.5 0.9 -2.68 l0 -0.64 c-0.08 -2.18 -0.3 -2.68 -0.9 -2.68 l-1.24 0 l0 6 z M33.18 20 l0 -16 l4.6 0 l0 1.6 l-2.6 0 l0 5.2 l2.2 0 l0 1.6 l-2.2 0 l0 5.6 l2.6 0 l0 2 l-4.6 0 z"></path>
</g>
<g id="SvgjsG4830" 
featurekey="inlineSymbolFeature-0" 
transform="matrix(0.2275288310615094,0,0,0.2275288310615094,101,0.15865635952556584)" 
fill="url(#SvgjsLinearGradient4838)">
<path xmlns="http://www.w3.org/2000/svg" d="M24.73,84.071c0.002-15.407,15.467-15.509,15.468-36.228c-0.001-10.693-5.396-17.552-7.062-47.312  C33.099-0.135,30.236-0.622,30.099,0c-0.193,0.875,1.035,47.964,0.808,49.156c-0.167,0.875-3.08,0.956-3.302-0.062  c-0.199-0.911-1.927-47.307-2.089-48.883c-0.135-1.315-3.036-0.93-3.514-0.523c0,0-0.072,49.104-0.153,49.615  c-0.134,0.853-3.306,0.884-3.498,0c-0.109-0.506-0.153-49.615-0.153-49.615c-0.479-0.407-3.379-0.792-3.515,0.523  c-0.162,1.576-1.89,47.972-2.089,48.883c-0.223,1.019-3.135,0.938-3.302,0.062c-0.228-1.192,1-48.281,0.808-49.156  c-0.137-0.622-3-0.135-3.037,0.531C5.396,30.292,0.001,37.151,0,47.844c0.001,20.719,15.466,20.82,15.468,36.228  c0.001,13.059,0.102,55.728,0.001,57.733c-0.948,18.576-8.998,39.221-8.998,56.487c0,14.609,13.272,14.61,13.272,14.61l0.002-0.001  c0,0,0.133-0.001,0.354-0.015c0.221,0.014,0.354,0.015,0.354,0.015l0.002,0.001c0,0,13.272-0.001,13.272-14.61  c0-17.267-8.05-37.911-8.998-56.487C24.629,139.799,24.729,97.13,24.73,84.071z"></path>
</g>
<g 
id="SvgjsG4831" 
featurekey="nameRightFeature-0" 
transform="matrix(2.2247855257020692,0,0,2.2247855257020692,117.98615794903674,-1.8991421028082769)" 
fill="url(#SvgjsLinearGradient4841)">
<path d="M5.4 20 l0 -16 l4.2 0 l0 1.6 l-2.2 0 l0 6 l1.8 0 l0 1.6 l-1.8 0 l0 6.8 l-2 0 z M11 20 l0 -16 l2 0 l0 16 l-2 0 z M15 20 l0 -16 l1.8 0 l2.62 9.8 l-0.02 -0.2 l0 -9.6 l2 0 l0 16 l-1.8 0 l-2.62 -8.8 l0.02 0.2 l0 8.6 l-2 0 z M23.4 20 l0 -16 l3 0 c3 0 3 2.2 3 7.58 c0 6.2 0 8.42 -3 8.42 l-3 0 z M25.4 18 l1 0 c1.12 0 1.12 -0.84 1.12 -6.42 c0 -5 0 -5.98 -1.12 -5.98 l-1 0 l0 12.4 z M31.2 20 l0 -16 l4.6 0 l0 1.6 l-2.6 0 l0 5.2 l2.2 0 l0 1.6 l-2.2 0 l0 5.6 l2.6 0 l0 2 l-4.6 0 z M37.2 20 l0 -16 l3.24 0 c2.06 0 2.76 1.26 2.76 3.68 c0 2.18 -0.26 3.42 -0.88 4.02 l0 0.12 c0.52 0.18 0.68 1.12 0.88 3.46 l0.4 4.72 l-2 0 l-0.26 -4.72 c-0.14 -2.38 -0.5 -2.88 -1.1 -2.88 l-1.04 0 l0 7.6 l-2 0 z M39.2 10.8 l1.24 0 c0.7 0 0.9 -0.7 0.9 -3.12 c0 -1.58 -0.3 -2.08 -0.9 -2.08 l-1.24 0 l0 5.2 z"></path>
</g>
</svg>